# xmcd
#
# Track frame offsets: 
#        150
#        13386
#        30946
#        44327
#        59105
#        74178
#        88491
#        102031
#        118949
#        133484
#
# Disc length: 2035 seconds
#
# Revision: 0
# Processed by: cddbd v1.5.2PL0 Copyright (c) Steve Scherf et al.
# Submitted via: ExactAudioCopy v0.99pb4
#
DISCID=a007f10a
DTITLE=Sarah McClurg - Tennessee Rain
DYEAR=2010
DGENRE=Country
TTITLE0=Tennessee Rain
TTITLE1=Little More Highway
TTITLE2=Out of Nowhere
TTITLE3=One Soul
TTITLE4=Neverland
TTITLE5=Rodeo Girl
TTITLE6=Better Luck Next Time
TTITLE7=Home is Where You Are
TTITLE8=Sunday Morning
TTITLE9=Tumbleweed
EXTD=
EXTT0=
EXTT1=
EXTT2=
EXTT3=
EXTT4=
EXTT5=
EXTT6=
EXTT7=
EXTT8=
EXTT9=
PLAYORDER=
